# xmcd CD database file
#
# Track frame offsets:
#	150
#	13995
#	36540
#	52389
#	70571
#	82653
#	98101
#	115011
#	129932
#	148470
#	164870
#	179527
#	190328
#	205857
#	223109
#	236980
#	251679
#	272330
#	285934
#	304087
#	326107
#
# Disc length: 4555 seconds
#
# Revision: 0
# Processed by: cddbd v1.5.1PL2 Copyright (c) Steve Scherf et al.
# Submitted via: CDex 1.51
#
DISCID=4611c915
DTITLE=Jools Holland's Big Band - Rhythm and Blues
DYEAR=2001
DGENRE=Blues
TTITLE0=Seventh Son
TTITLE1=Horse To The Water
TTITLE2=Will It Go Round In Circles
TTITLE3=Valentine Moon
TTITLE4=The Return Of The Blues Cowboy
TTITLE5=The Hand That Changed It's Mind
TTITLE6=Nobody But You
TTITLE7=Revolution
TTITLE8=I Put A Spell On You
TTITLE9=Oranges And Lemons Again
TTITLE10=All That You Are
TTITLE11=Mademoiselle Will Decide
TTITLE12=Back O'Town Blues
TTITLE13=Town And Country Rhythm And Blues
TTITLE14=I Wanna Be Around
TTITLE15=I'm Ready
TTITLE16=Say Hello Wave Goodbye
TTITLE17=T-Bone Shuffle
TTITLE18=It's So Blue
TTITLE19=Outskirts Of Town
TTITLE20=What Would I Do Without You
EXTD=YEAR: 2001
EXTT0=
EXTT1=
EXTT2=
EXTT3=
EXTT4=
EXTT5=
EXTT6=
EXTT7=
EXTT8=
EXTT9=
EXTT10=
EXTT11=
EXTT12=
EXTT13=
EXTT14=
EXTT15=
EXTT16=
EXTT17=
EXTT18=
EXTT19=
EXTT20=
PLAYORDER=
